<mxfile host="app.diagrams.net" modified="2024-05-20T17:42:27.385Z" agent="Mozilla/5.0 (Windows NT 10.0; Win64; x64) AppleWebKit/537.36 (KHTML, like Gecko) Chrome/124.0.0.0 Safari/537.36" etag="hQUsMicLmUfM-F-Oufpf" version="24.3.1" type="github">
  <diagram name="第 1 页" id="dzF5lLid1gJUaFPnhA8A">
    <mxGraphModel dx="2074" dy="1145" grid="0" gridSize="10" guides="1" tooltips="1" connect="1" arrows="1" fold="1" page="1" pageScale="1" pageWidth="827" pageHeight="1169" math="0" shadow="0">
      <root>
        <mxCell id="0" />
        <mxCell id="1" parent="0" />
        <mxCell id="URQ1RADzwNu5hVIK9_lJ-1" value="" style="rounded=0;whiteSpace=wrap;html=1;" vertex="1" parent="1">
          <mxGeometry x="397" y="412" width="402" height="327" as="geometry" />
        </mxCell>
      </root>
    </mxGraphModel>
  </diagram>
</mxfile>
